<svg width="28" height="28" viewBox="0 0 28 28" fill="none" xmlns="http://www.w3.org/2000/svg">
<path fill-rule="evenodd" clip-rule="evenodd" d="M16.086 4.43799C15.554 2.25399 12.446 2.25399 11.914 4.43799C11.8346 4.76617 11.6788 5.07096 11.4593 5.32756C11.2398 5.58416 10.9629 5.78532 10.651 5.91467C10.3391 6.04401 10.0011 6.09789 9.6644 6.07191C9.32774 6.04594 9.00197 5.94085 8.7136 5.76519C6.7928 4.59479 4.5948 6.79279 5.7652 8.71359C6.5212 9.95399 5.8506 11.5724 4.4394 11.9154C2.254 12.446 2.254 15.5554 4.4394 16.0846C4.76767 16.1641 5.07252 16.32 5.32912 16.5397C5.58572 16.7593 5.78682 17.0365 5.91604 17.3485C6.04526 17.6606 6.09895 17.9988 6.07274 18.3355C6.04653 18.6723 5.94116 18.9981 5.7652 19.2864C4.5948 21.2072 6.7928 23.4052 8.7136 22.2348C9.00192 22.0588 9.32772 21.9535 9.66446 21.9272C10.0012 21.901 10.3394 21.9547 10.6515 22.084C10.9635 22.2132 11.2407 22.4143 11.4603 22.6709C11.6799 22.9275 11.8359 23.2323 11.9154 23.5606C12.446 25.746 15.5554 25.746 16.0846 23.5606C16.1644 23.2325 16.3205 22.9279 16.5402 22.6714C16.7599 22.415 17.037 22.214 17.3489 22.0849C17.6609 21.9557 17.999 21.9019 18.3356 21.928C18.6723 21.954 18.998 22.0591 19.2864 22.2348C21.2072 23.4052 23.4052 21.2072 22.2348 19.2864C22.0592 18.998 21.954 18.6722 21.928 18.3356C21.9019 17.9989 21.9557 17.6609 22.0849 17.3489C22.2141 17.0369 22.415 16.7598 22.6714 16.5402C22.9279 16.3205 23.2325 16.1644 23.5606 16.0846C25.746 15.554 25.746 12.4446 23.5606 11.9154C23.2323 11.8359 22.9275 11.6799 22.6709 11.4603C22.4143 11.2406 22.2132 10.9635 22.084 10.6514C21.9547 10.3394 21.9011 10.0012 21.9273 9.66445C21.9535 9.3277 22.0589 9.0019 22.2348 8.71359C23.4052 6.79279 21.2072 4.59479 19.2864 5.76519C18.9981 5.94114 18.6723 6.04651 18.3355 6.07272C17.9988 6.09894 17.6606 6.04524 17.3486 5.91602C17.0365 5.7868 16.7593 5.5857 16.5397 5.3291C16.3201 5.0725 16.1641 4.76766 16.0846 4.43939L16.086 4.43799ZM14 18.2C15.1139 18.2 16.1822 17.7575 16.9699 16.9698C17.7575 16.1822 18.2 15.1139 18.2 14C18.2 12.8861 17.7575 11.8178 16.9699 11.0301C16.1822 10.2425 15.1139 9.79999 14 9.79999C12.8861 9.79999 11.8178 10.2425 11.0302 11.0301C10.2425 11.8178 9.8 12.8861 9.8 14C9.8 15.1139 10.2425 16.1822 11.0302 16.9698C11.8178 17.7575 12.8861 18.2 14 18.2Z" fill="#4B5563"/>
</svg>
