<svg width="98" height="98" viewBox="0 0 98 98" fill="none" xmlns="http://www.w3.org/2000/svg">
<path d="M12.25 42.875C13.9344 42.875 15.3125 41.4969 15.3125 39.8125V38.8632C15.3125 37.1788 13.9344 35.8007 12.25 35.8007C10.5656 35.8007 9.1875 37.1788 9.1875 38.8632V39.8125C9.1875 41.4969 10.5656 42.875 12.25 42.875Z" fill="#BCF0DA"/>
<path d="M94.0494 40.7006C92.855 39.5062 90.9256 39.5062 89.7312 40.7006L88.8431 41.5887V30.3187C88.8431 15.2819 76.6237 3.0625 61.5869 3.0625H36.4744C21.4069 3.0625 9.1875 15.2819 9.1875 30.3187C9.1875 32.0031 10.5656 33.3812 12.25 33.3812C13.9344 33.3812 15.3125 32.0031 15.3125 30.3187C15.3125 18.6506 24.8062 9.1875 36.4437 9.1875H61.5563C73.2244 9.1875 82.6875 18.6812 82.6875 30.3187V49C82.6875 50.225 83.4225 51.3581 84.5863 51.8175C84.9538 51.9706 85.3519 52.0625 85.75 52.0625C86.5462 52.0625 87.3425 51.7562 87.9244 51.1744L94.0494 45.0494C95.2437 43.855 95.2437 41.9256 94.0494 40.7313V40.7006Z" fill="#BCF0DA"/>
<path d="M85.75 55.125C84.0656 55.125 82.6875 56.5031 82.6875 58.1875V59.1369C82.6875 60.8212 84.0656 62.1994 85.75 62.1994C87.4344 62.1994 88.8125 60.8212 88.8125 59.1369V58.1875C88.8125 56.5031 87.4344 55.125 85.75 55.125Z" fill="#BCF0DA"/>
<path d="M85.7499 64.6188C84.0655 64.6188 82.6874 65.9969 82.6874 67.6813C82.6874 79.3494 73.1936 88.8126 61.5561 88.8126H36.4436C24.7755 88.8126 15.3123 79.3188 15.3123 67.6813V49.0001C15.3123 47.7751 14.5773 46.6419 13.4136 46.1826C12.2805 45.7232 10.9636 45.9682 10.0755 46.8563L3.95047 52.9813C2.75609 54.1757 2.75609 56.1051 3.95047 57.2994C5.14484 58.4938 7.07422 58.4938 8.26859 57.2994L9.15672 56.4113V67.6813C9.15672 82.7182 21.3761 94.9376 36.413 94.9376H61.5255C76.5623 94.9376 88.7817 82.7182 88.7817 67.6813C88.7817 65.9969 87.4036 64.6188 85.7192 64.6188H85.7499Z" fill="#BCF0DA"/>
<path d="M33.6875 82.6875H64.3125C71.0806 82.6875 76.5625 77.2056 76.5625 70.4375V27.5625C76.5625 20.7944 71.0806 15.3125 64.3125 15.3125H33.6875C26.9194 15.3125 21.4375 20.7944 21.4375 27.5625V70.4375C21.4375 77.2056 26.9194 82.6875 33.6875 82.6875ZM27.5625 27.5625C27.5625 24.1938 30.3188 21.4375 33.6875 21.4375H64.3125C67.6813 21.4375 70.4375 24.1938 70.4375 27.5625V70.4375C70.4375 73.8063 67.6813 76.5625 64.3125 76.5625H33.6875C30.3188 76.5625 27.5625 73.8063 27.5625 70.4375V27.5625Z" fill="#BCF0DA"/>
<path d="M52.0625 58.1875H39.8125C38.1281 58.1875 36.75 59.5656 36.75 61.25C36.75 62.9344 38.1281 64.3125 39.8125 64.3125H45.9375V67.375C45.9375 69.0594 47.3156 70.4375 49 70.4375C50.6844 70.4375 52.0625 69.0594 52.0625 67.375V64.3125C57.1156 64.3125 61.25 60.1781 61.25 55.125C61.25 50.0719 57.1156 45.9375 52.0625 45.9375H45.9375C44.2531 45.9375 42.875 44.5594 42.875 42.875C42.875 41.1906 44.2531 39.8125 45.9375 39.8125H58.1875C59.8719 39.8125 61.25 38.4344 61.25 36.75C61.25 35.0656 59.8719 33.6875 58.1875 33.6875H52.0625V30.625C52.0625 28.9406 50.6844 27.5625 49 27.5625C47.3156 27.5625 45.9375 28.9406 45.9375 30.625V33.6875C40.8844 33.6875 36.75 37.8219 36.75 42.875C36.75 47.9281 40.8844 52.0625 45.9375 52.0625H52.0625C53.7469 52.0625 55.125 53.4406 55.125 55.125C55.125 56.8094 53.7469 58.1875 52.0625 58.1875Z" fill="#BCF0DA"/>
</svg>
