<svg width="20" height="21" viewBox="0 0 20 21" fill="none" xmlns="http://www.w3.org/2000/svg">
<path d="M11.0001 3.47876C10.7349 3.47876 10.4805 3.58412 10.293 3.77165C10.1054 3.95919 10.0001 4.21354 10.0001 4.47876C10.0001 4.74398 10.1054 4.99833 10.293 5.18587C10.4805 5.3734 10.7349 5.47876 11.0001 5.47876H13.5861L7.29308 11.7718C7.19757 11.864 7.12139 11.9744 7.06898 12.0964C7.01657 12.2184 6.98898 12.3496 6.98783 12.4824C6.98668 12.6151 7.01198 12.7468 7.06226 12.8697C7.11254 12.9926 7.18679 13.1043 7.28069 13.1982C7.37458 13.292 7.48623 13.3663 7.60913 13.4166C7.73202 13.4669 7.8637 13.4922 7.99648 13.491C8.12926 13.4899 8.26048 13.4623 8.38249 13.4099C8.50449 13.3575 8.61483 13.2813 8.70708 13.1858L15.0001 6.89276V9.47876C15.0001 9.74398 15.1054 9.99833 15.293 10.1859C15.4805 10.3734 15.7349 10.4788 16.0001 10.4788C16.2653 10.4788 16.5197 10.3734 16.7072 10.1859C16.8947 9.99833 17.0001 9.74398 17.0001 9.47876V4.47876C17.0001 4.21354 16.8947 3.95919 16.7072 3.77165C16.5197 3.58412 16.2653 3.47876 16.0001 3.47876H11.0001Z" fill="#1F2A37"/>
<path d="M5 5.47876C4.46957 5.47876 3.96086 5.68947 3.58579 6.06455C3.21071 6.43962 3 6.94833 3 7.47876V15.4788C3 16.0092 3.21071 16.5179 3.58579 16.893C3.96086 17.268 4.46957 17.4788 5 17.4788H13C13.5304 17.4788 14.0391 17.268 14.4142 16.893C14.7893 16.5179 15 16.0092 15 15.4788V12.4788C15 12.2135 14.8946 11.9592 14.7071 11.7717C14.5196 11.5841 14.2652 11.4788 14 11.4788C13.7348 11.4788 13.4804 11.5841 13.2929 11.7717C13.1054 11.9592 13 12.2135 13 12.4788V15.4788H5V7.47876H8C8.26522 7.47876 8.51957 7.3734 8.70711 7.18587C8.89464 6.99833 9 6.74398 9 6.47876C9 6.21354 8.89464 5.95919 8.70711 5.77165C8.51957 5.58412 8.26522 5.47876 8 5.47876H5Z" fill="#1F2A37"/>
</svg>
