<svg width="14" height="14" viewBox="0 0 14 14" fill="none" xmlns="http://www.w3.org/2000/svg">
<g clip-path="url(#clip0_43_8056)">
<path d="M13.3731 7.51942C13.3731 7.07757 13.3373 6.63333 13.2609 6.19864H7.12988V8.70167H10.6408C10.4951 9.50894 10.027 10.2231 9.34154 10.6769V12.301H11.4362C12.6662 11.1689 13.3731 9.497 13.3731 7.51942Z" fill="#4285F4"/>
<path d="M7.12985 13.8701C8.88293 13.8701 10.3613 13.2945 11.4385 12.301L9.34389 10.6769C8.76112 11.0733 8.00878 11.2978 7.13224 11.2978C5.43648 11.2978 3.99867 10.1538 3.48278 8.61568H1.32129V10.2899C2.42472 12.4849 4.6722 13.8701 7.12985 13.8701Z" fill="#34A853"/>
<path d="M3.48042 8.61569C3.20815 7.80841 3.20815 6.93426 3.48042 6.12699V4.45273H1.32132C0.399403 6.2894 0.399403 8.45328 1.32132 10.2899L3.48042 8.61569Z" fill="#FBBC04"/>
<path d="M7.12985 3.44242C8.05654 3.42809 8.95219 3.7768 9.62333 4.41688L11.4791 2.56111C10.304 1.45767 8.7444 0.851021 7.12985 0.870128C4.6722 0.870128 2.42472 2.25539 1.32129 4.45271L3.48039 6.12697C3.9939 4.58646 5.43409 3.44242 7.12985 3.44242Z" fill="#EA4335"/>
</g>
<defs>
<clipPath id="clip0_43_8056">
<rect width="13" height="13" fill="white" transform="translate(0.5 0.86969)"/>
</clipPath>
</defs>
</svg>
