<svg width="38" height="37" viewBox="0 0 38 37" fill="none" xmlns="http://www.w3.org/2000/svg">
<circle cx="19.1978" cy="18.5" r="18.3697" fill="#0A1F27"/>
<path d="M9.89941 8.52142V22.401H14.425V13.0013H23.2759C23.6764 13.0013 24.2371 13.5613 24.2371 14.2412C24.2371 14.7852 23.5963 15.1612 23.2759 15.2812H16.6678C16.6678 21.081 17.7491 22.121 18.3899 23.3609C20.9851 27.5528 26.3597 28.3608 28.7227 28.2408V23.7209C25.5988 23.4809 25.7991 23.4009 24.2371 22.761C22.9876 22.249 22.0344 20.5477 21.714 19.7611H23.7966C25.4386 19.5877 28.7227 18.2411 28.7227 14.2412C28.7227 10.2414 25.4386 8.76142 23.7966 8.52142H9.89941Z" fill="#00DD85"/>
<path d="M24.2373 22.7609C22.9878 22.2489 22.0346 20.5476 21.7142 19.761L16.668 15.2811C16.668 21.0809 17.7493 22.1209 18.3901 23.3609C20.9853 27.5527 26.3599 28.3607 28.7229 28.2407V23.7208C25.599 23.4809 25.7992 23.4009 24.2373 22.7609Z" fill="url(#paint0_linear_104_599)"/>
<defs>
<linearGradient id="paint0_linear_104_599" x1="19.538" y1="17.0259" x2="18.4041" y2="20.5411" gradientUnits="userSpaceOnUse">
<stop stop-color="#9B9B9B"/>
<stop offset="0.510417" stop-color="white"/>
</linearGradient>
</defs>
</svg>
