<svg width="19" height="21" viewBox="0 0 19 21" fill="none" xmlns="http://www.w3.org/2000/svg">
<path d="M11.6609 6.47382C11.0824 7.07066 10.3044 7.4 9.5 7.4C8.69562 7.4 7.91765 7.07066 7.33908 6.47382C6.75948 5.87592 6.42857 5.05855 6.42857 4.2C6.42857 3.34145 6.75948 2.52408 7.33908 1.92618C7.91765 1.32934 8.69562 1 9.5 1C10.3044 1 11.0824 1.32934 11.6609 1.92618L12.3626 1.24596L11.6609 1.92618C12.2405 2.52408 12.5714 3.34145 12.5714 4.2C12.5714 5.05855 12.2405 5.87592 11.6609 6.47382ZM1.05507 20C1.14524 19.1838 1.34554 18.3834 1.65113 17.6223C2.08074 16.5524 2.70966 15.5822 3.5005 14.7664C4.29127 13.9506 5.22837 13.3053 6.25743 12.8656C7.28643 12.4259 8.38816 12.2 9.5 12.2C10.6118 12.2 11.7136 12.4259 12.7426 12.8656C13.7716 13.3053 14.7087 13.9506 15.4995 14.7664C16.2903 15.5822 16.9193 16.5524 17.3489 17.6223C17.6545 18.3834 17.8548 19.1838 17.9449 20H1.05507Z" fill="#4B5563" stroke="#4B5563" stroke-width="2"/>
</svg>
