<svg width="54" height="54" viewBox="0 0 54 54" fill="none" xmlns="http://www.w3.org/2000/svg">
<path fill-rule="evenodd" clip-rule="evenodd" d="M8.1001 10.8C8.1001 10.0839 8.38456 9.39717 8.89091 8.89082C9.39726 8.38447 10.084 8.10001 10.8001 8.10001H18.9001C19.6162 8.10001 20.3029 8.38447 20.8093 8.89082C21.3156 9.39717 21.6001 10.0839 21.6001 10.8V18.9C21.6001 19.6161 21.3156 20.3028 20.8093 20.8092C20.3029 21.3155 19.6162 21.6 18.9001 21.6H10.8001C10.084 21.6 9.39726 21.3155 8.89091 20.8092C8.38456 20.3028 8.1001 19.6161 8.1001 18.9V10.8ZM13.5001 16.2V13.5H16.2001V16.2H13.5001ZM8.1001 35.1C8.1001 34.3839 8.38456 33.6972 8.89091 33.1908C9.39726 32.6845 10.084 32.4 10.8001 32.4H18.9001C19.6162 32.4 20.3029 32.6845 20.8093 33.1908C21.3156 33.6972 21.6001 34.3839 21.6001 35.1V43.2C21.6001 43.9161 21.3156 44.6029 20.8093 45.1092C20.3029 45.6155 19.6162 45.9 18.9001 45.9H10.8001C10.084 45.9 9.39726 45.6155 8.89091 45.1092C8.38456 44.6029 8.1001 43.9161 8.1001 43.2V35.1ZM13.5001 40.5V37.8H16.2001V40.5H13.5001ZM35.1001 8.10001C34.384 8.10001 33.6973 8.38447 33.1909 8.89082C32.6846 9.39717 32.4001 10.0839 32.4001 10.8V18.9C32.4001 19.6161 32.6846 20.3028 33.1909 20.8092C33.6973 21.3155 34.384 21.6 35.1001 21.6H43.2001C43.9162 21.6 44.6029 21.3155 45.1093 20.8092C45.6156 20.3028 45.9001 19.6161 45.9001 18.9V10.8C45.9001 10.0839 45.6156 9.39717 45.1093 8.89082C44.6029 8.38447 43.9162 8.10001 43.2001 8.10001H35.1001ZM37.8001 13.5V16.2H40.5001V13.5H37.8001Z" fill="#374151"/>
<path d="M29.7001 10.8C29.7001 10.0839 29.4156 9.39717 28.9093 8.89082C28.4029 8.38447 27.7162 8.10001 27.0001 8.10001C26.284 8.10001 25.5973 8.38447 25.0909 8.89082C24.5846 9.39717 24.3001 10.0839 24.3001 10.8V13.5C24.3001 14.2161 24.5846 14.9028 25.0909 15.4092C25.5973 15.9155 26.284 16.2 27.0001 16.2C27.7162 16.2 28.4029 15.9155 28.9093 15.4092C29.4156 14.9028 29.7001 14.2161 29.7001 13.5V10.8ZM27.0001 18.9C27.7162 18.9 28.4029 19.1845 28.9093 19.6908C29.4156 20.1972 29.7001 20.8839 29.7001 21.6V24.3H35.1001C35.8162 24.3 36.5029 24.5845 37.0093 25.0908C37.5156 25.5972 37.8001 26.2839 37.8001 27C37.8001 27.7161 37.5156 28.4028 37.0093 28.9092C36.5029 29.4155 35.8162 29.7 35.1001 29.7H27.0001C26.284 29.7 25.5973 29.4155 25.0909 28.9092C24.5846 28.4028 24.3001 27.7161 24.3001 27V21.6C24.3001 20.8839 24.5846 20.1972 25.0909 19.6908C25.5973 19.1845 26.284 18.9 27.0001 18.9ZM43.2001 24.3C42.484 24.3 41.7973 24.5845 41.2909 25.0908C40.7846 25.5972 40.5001 26.2839 40.5001 27C40.5001 27.7161 40.7846 28.4028 41.2909 28.9092C41.7973 29.4155 42.484 29.7 43.2001 29.7C43.9162 29.7 44.6029 29.4155 45.1093 28.9092C45.6156 28.4028 45.9001 27.7161 45.9001 27C45.9001 26.2839 45.6156 25.5972 45.1093 25.0908C44.6029 24.5845 43.9162 24.3 43.2001 24.3ZM24.3001 35.1C24.3001 34.3839 24.5846 33.6972 25.0909 33.1908C25.5973 32.6845 26.284 32.4 27.0001 32.4H29.7001C30.4162 32.4 31.1029 32.6845 31.6093 33.1908C32.1156 33.6972 32.4001 34.3839 32.4001 35.1C32.4001 35.8161 32.1156 36.5028 31.6093 37.0092C31.1029 37.5155 30.4162 37.8 29.7001 37.8V43.2C29.7001 43.9161 29.4156 44.6029 28.9093 45.1092C28.4029 45.6155 27.7162 45.9 27.0001 45.9C26.284 45.9 25.5973 45.6155 25.0909 45.1092C24.5846 44.6029 24.3001 43.9161 24.3001 43.2V35.1ZM18.9001 29.7C19.6162 29.7 20.3029 29.4155 20.8093 28.9092C21.3156 28.4028 21.6001 27.7161 21.6001 27C21.6001 26.2839 21.3156 25.5972 20.8093 25.0908C20.3029 24.5845 19.6162 24.3 18.9001 24.3H10.8001C10.084 24.3 9.39726 24.5845 8.89091 25.0908C8.38456 25.5972 8.1001 26.2839 8.1001 27C8.1001 27.7161 8.38456 28.4028 8.89091 28.9092C9.39726 29.4155 10.084 29.7 10.8001 29.7H18.9001ZM45.9001 35.1C45.9001 35.8161 45.6156 36.5028 45.1093 37.0092C44.6029 37.5155 43.9162 37.8 43.2001 37.8H37.8001C37.084 37.8 36.3973 37.5155 35.8909 37.0092C35.3846 36.5028 35.1001 35.8161 35.1001 35.1C35.1001 34.3839 35.3846 33.6972 35.8909 33.1908C36.3973 32.6845 37.084 32.4 37.8001 32.4H43.2001C43.9162 32.4 44.6029 32.6845 45.1093 33.1908C45.6156 33.6972 45.9001 34.3839 45.9001 35.1ZM43.2001 45.9C43.9162 45.9 44.6029 45.6155 45.1093 45.1092C45.6156 44.6029 45.9001 43.9161 45.9001 43.2C45.9001 42.4839 45.6156 41.7972 45.1093 41.2908C44.6029 40.7845 43.9162 40.5 43.2001 40.5H35.1001C34.384 40.5 33.6973 40.7845 33.1909 41.2908C32.6846 41.7972 32.4001 42.4839 32.4001 43.2C32.4001 43.9161 32.6846 44.6029 33.1909 45.1092C33.6973 45.6155 34.384 45.9 35.1001 45.9H43.2001Z" fill="#374151"/>
</svg>
